# xmcd
#
# Track frame offsets: 
#        150
#        86563
#        143260
#        223415
#
# Disc length: 3581 seconds
#
# Revision: 1
# Processed by: cddbd v1.5.2PL0 Copyright (c) Steve Scherf et al.
# Submitted via: ExactAudioCopy v1.0b3
#
DISCID=320dfb04
DTITLE=Larry Ochs - Sax and Drumming Core - Stone Shift
DYEAR=2009
DGENRE=Jazz
TTITLE0=Across From Over
TTITLE1=Abstraction Rising
TTITLE2=Stone Shift (for Kurosawa)
TTITLE3=Finn Veers For Venus
EXTD=YEAR: 2009
EXTT0=
EXTT1=
EXTT2=
EXTT3=
PLAYORDER=
